<?xml version="1.0" encoding="UTF-8"?>
<!DOCTYPE svg PUBLIC "-//W3C//DTD SVG 1.1//EN" "http://www.w3.org/Graphics/SVG/1.1/DTD/svg11.dtd">
<svg xmlns="http://www.w3.org/2000/svg" xmlns:xlink="http://www.w3.org/1999/xlink">
    <symbol id="disabled" viewBox="0 0 20 20">
        <path d="M10,18 C8.154,18 6.457,17.366 5.102,16.311 L16.312,5.103 C17.366,6.458 18,8.154 18,10 C18,14.411 14.411,18 10,18 M10,2 C11.846,2 13.543,2.634 14.898,3.689 L3.688,14.897 C2.634,13.542 2,11.846 2,10 C2,5.589 5.589,2 10,2 M10,0 C4.486,0 0,4.486 0,10 C0,15.514 4.486,20 10,20 C15.514,20 20,15.514 20,10 C20,4.486 15.514,0 10,0"/>
    </symbol>
    <symbol id="close" viewBox="0 0 20 20">
        <path d="M11.4141,10 L17.7071,3.707 C18.0981,3.316 18.0981,2.684 17.7071,2.293 C17.3161,1.902 16.6841,1.902 16.2931,2.293 L10.0001,8.586 L3.7071,2.293 C3.3161,1.902 2.6841,1.902 2.2931,2.293 C1.9021,2.684 1.9021,3.316 2.2931,3.707 L8.5861,10 L2.2931,16.293 C1.9021,16.684 1.9021,17.316 2.2931,17.707 C2.4881,17.902 2.7441,18 3.0001,18 C3.2561,18 3.5121,17.902 3.7071,17.707 L10.0001,11.414 L16.2931,17.707 C16.4881,17.902 16.7441,18 17.0001,18 C17.2561,18 17.5121,17.902 17.7071,17.707 C18.0981,17.316 18.0981,16.683 17.7071,16.292 L11.4141,10 Z" />
    </symbol>
    <symbol id="check" viewBox="0 0 20 20">
        <path d="M7.6477,16 C7.6367,16 7.6267,16 7.6157,16 C7.3447,15.991 7.0907,15.873 6.9087,15.674 L3.2607,11.674 C2.8887,11.266 2.9187,10.633 3.3267,10.261 C3.7337,9.89 4.3677,9.918 4.7397,10.326 L7.6947,13.567 L16.3067,5.279 C16.7057,4.897 17.3377,4.908 17.7207,5.307 C18.1037,5.705 18.0917,6.337 17.6937,6.721 L8.3407,15.721 C8.1547,15.9 7.9057,16 7.6477,16" />
    </symbol>
    <symbol id="euro" viewBox="0 0 20 20">
        <path d="M16.3301,14.2871 C15.0151,15.9321 13.0491,16.8751 10.9371,16.8751 C8.1631,16.8751 5.7701,15.2341 4.6621,12.8751 L9.0001,12.8751 C9.5531,12.8751 10.0001,12.4271 10.0001,11.8751 C10.0001,11.3231 9.5531,10.8751 9.0001,10.8751 L4.0711,10.8751 C4.0291,10.5671 4.0001,10.2561 4.0001,9.9371 C4.0001,9.5751 4.0361,9.2221 4.0901,8.8751 L9.0001,8.8751 C9.5531,8.8751 10.0001,8.4271 10.0001,7.8751 C10.0001,7.3231 9.5531,6.8751 9.0001,6.8751 L4.7221,6.8751 C5.8561,4.5831 8.2121,3.0001 10.9371,3.0001 C13.0491,3.0001 15.0151,3.9431 16.3301,5.5881 C16.6761,6.0191 17.3051,6.0901 17.7361,5.7441 C18.1671,5.3991 18.2371,4.7701 17.8921,4.3391 C16.1951,2.2171 13.6601,1.0001 10.9371,1.0001 C7.0871,1.0001 3.8061,3.4531 2.5521,6.8751 L1.0001,6.8751 C0.4471,6.8751 0.0001,7.3231 0.0001,7.8751 C0.0001,8.4271 0.4471,8.8751 1.0001,8.8751 L2.0691,8.8751 C2.0271,9.2241 2.0001,9.5771 2.0001,9.9371 C2.0001,10.2541 2.0171,10.5671 2.0501,10.8751 L1.0001,10.8751 C0.4471,10.8751 0.0001,11.3231 0.0001,11.8751 C0.0001,12.4271 0.4471,12.8751 1.0001,12.8751 L2.5061,12.8751 C3.7261,16.3621 7.0401,18.8751 10.9371,18.8751 C13.6601,18.8751 16.1951,17.6581 17.8921,15.5361 C18.2371,15.1051 18.1671,14.4751 17.7361,14.1311 C17.3051,13.7861 16.6771,13.8561 16.3301,14.2871"/>
    </symbol>
    <symbol id="lock" viewBox="0 0 20 20">
        <path d="M11.5,12.5 C11.5,12.941 11.305,13.335 11,13.61 L11,15 C11,15.552 10.553,16 10,16 C9.447,16 9,15.552 9,15 L9,13.61 C8.695,13.335 8.5,12.941 8.5,12.5 C8.5,11.673 9.173,11 10,11 C10.827,11 11.5,11.673 11.5,12.5 Z M4,18 L16,18 L16,9 L4,9 L4,18 Z M6.999,5.048 L6.999,7 L12.999,7 L12.999,5.048 C12.999,3.368 11.653,2 9.999,2 C8.345,2 6.999,3.368 6.999,5.048 Z M17,7 C17.553,7 18,7.448 18,8 L18,19 C18,19.552 17.553,20 17,20 L3,20 C2.447,20 2,19.552 2,19 L2,8 C2,7.448 2.447,7 3,7 L4.999,7 L4.999,5.048 C4.999,2.265 7.242,0 9.999,0 C12.756,0 14.999,2.265 14.999,5.048 L14.999,7 L17,7 Z"/>
    </symbol>
    <symbol id="print" viewBox="0 0 20 20">
        <path d="M19,5 C19.553,5 20,5.448 20,6 L20,16 C20,16.552 19.553,17 19,17 L16,17 L16,19 C16,19.552 15.553,20 15,20 L5,20 C4.447,20 4,19.552 4,19 L4,17 L1,17 C0.447,17 0,16.552 0,16 L0,6 C0,5.448 0.447,5 1,5 L4,5 L4,1 C4,0.448 4.447,0 5,0 L15,0 C15.553,0 16,0.448 16,1 L16,5 L19,5 Z M6,18 L14,18 L14,14 L6,14 L6,18 Z M6,5 L14,5 L14,2 L6,2 L6,5 Z M18,15 L18,7 L15,7 L5,7 L2,7 L2,15 L4,15 L4,13 C4,12.448 4.447,12 5,12 L15,12 C15.553,12 16,12.448 16,13 L16,15 L18,15 Z"/>
    </symbol>
</svg>